<svg width="1427" height="687" viewBox="0 0 1427 687" fill="none" xmlns="http://www.w3.org/2000/svg">
<path fill-rule="evenodd" clip-rule="evenodd" d="M988.536 530.549C1044.55 494.456 1096.56 578.699 1112.58 562.642C1212.61 462.364 1288.3 484.119 1416.68 526.538C1468.7 543.725 1310.95 340.913 1236.62 301.901C1165.29 264.468 1083.08 272.59 1012.54 309.913C1036.58 190.412 1029.94 125.143 988.536 9.04597C887.005 45.7742 808.476 137.433 792.47 185.555C779.868 223.445 724.448 137.399 716.445 117.358C708.442 97.3174 708.442 153.462 700.44 153.462C692.437 153.462 684.434 121.773 680.433 129.393C676.432 137.012 622.629 218.264 616.412 185.548C600.406 101.323 446.932 -27.0338 432.35 5.03441C382.603 114.515 392.336 193.578 408.342 309.913C350.794 279.463 288.138 277.184 228.281 297.705C92.2359 325.971 -23.8024 535.793 4.20636 526.538C132.583 484.119 236.095 453.946 308.308 562.642C316.311 574.688 396.337 462.364 464.361 530.549C464.361 530.549 536.385 687 700.44 687C892.504 687 932.517 566.642 988.536 530.549ZM1000.54 346.029C989.42 410.891 979.021 450.526 952.524 530.549C990.712 470.707 995.296 425.894 1008.34 353.017C1036.35 340.983 1048.35 336.971 1084.36 325.971C1102.66 395.803 1111.33 455.498 1112.58 526.538C1123.11 452.392 1103.47 401.713 1092.57 325.971C1168.6 309.913 1244.62 354.052 1360.66 474.399C1227.62 330.091 1151.21 271.685 1000.54 346.029ZM420.345 346.029C431.465 410.891 441.864 450.526 468.361 530.549C430.173 470.707 425.383 430.94 412.343 358.063C392.336 338.005 372.329 333.994 336.317 325.971C318.023 395.803 309.555 455.498 308.308 526.538C297.774 452.392 317.414 401.713 328.314 325.971C252.289 309.913 176.264 354.052 60.225 474.398C193.27 330.091 269.677 271.685 420.345 346.029ZM644.42 474.399C656.049 482.171 662.454 490.42 676.431 490.445C697.454 490.482 708.441 454.794 716.444 454.341C724.447 453.887 739.213 487.013 760.459 486.433C776.541 485.995 782.081 473.589 796.471 466.375C807.172 461.011 796.312 476.279 782.023 487.581L768.461 518.526L755.294 498.339C735.611 495.439 720.129 466.201 716.444 466.375C713.365 466.521 703.72 489.03 689.902 498.468L676.431 522.537L664.427 497.42C649.691 487.717 635.065 468.146 644.42 474.399ZM684.433 317.948C684.433 289.867 720.695 286.235 731.293 301.901C747.577 325.971 713.711 296.598 709.583 317.948C704.154 346.029 736.721 333.994 731.293 342.017C727.861 347.091 684.433 358.063 684.433 317.948ZM852.49 362.075C852.49 374.31 844.627 384.927 832.483 386.144C792.47 390.156 796.672 428.2 804.473 434.283C813.108 441.016 822.462 438.678 832.483 434.283C843.664 429.379 847.471 421.367 852.49 410.214C860.2 393.077 852.49 354.052 852.49 362.075ZM584.4 358.063C584.4 370.299 592.263 380.915 604.407 382.133C644.419 386.144 640.217 424.188 632.416 430.271C619.889 433.979 613.756 433.98 604.407 430.271C593.225 425.367 589.419 417.355 584.4 406.202C576.689 389.066 584.4 350.04 584.4 358.063ZM448.355 153.474C448.355 153.474 460.359 57.1961 468.361 53.1845C476.364 49.173 620.412 141.439 584.4 249.751C584.4 249.751 580.399 273.82 552.389 265.797C529.455 259.228 552.389 315.38 520.379 317.948C420.345 325.971 448.355 153.474 448.355 153.474ZM840.486 253.763C857.422 265.436 884.5 257.774 892.503 261.786C900.506 265.797 888.502 325.971 948.522 333.994C969.36 336.779 981.718 314.765 984.534 293.878C1004.54 145.45 976.531 49.173 968.528 49.173C960.526 49.173 904.507 97.3117 868.495 125.393C860.492 131.633 776.464 209.635 840.486 253.763Z"/>
<path d="M760.459 498.468C758.709 498.643 756.986 498.589 755.294 498.339L768.461 518.526L782.023 487.581C774.941 493.183 767.017 497.81 760.459 498.468Z" fill="white"/>
<path d="M676.431 502.479C672.782 502.125 668.6 500.168 664.427 497.42L676.431 522.537L689.902 498.468C685.764 501.294 681.252 502.948 676.431 502.479Z" fill="white"/>
</svg>
