<svg width="233" height="108" viewBox="0 0 233 108" fill="none" xmlns="http://www.w3.org/2000/svg">
<path d="M110.969 2.03613C139.822 0.929171 164.459 25.6541 164.459 54.8555C164.459 83.8984 137.542 111.936 99.5859 104.902C83.8436 99.9543 75.6025 91.6323 71.5322 84.7256C70.0577 82.2236 69.1293 79.9043 68.5879 77.9902C81.6356 92.1216 99.4898 94.5339 114.502 89.8984C130.819 84.86 144.326 71.2757 144.326 54.8555C144.326 41.4434 141.568 31.4966 137.176 24.1514C132.776 16.7935 126.817 12.1786 120.647 9.31445C111.823 5.21802 102.496 4.69674 96.7002 4.72168C99.4767 3.50475 104.043 2.30188 110.969 2.03613ZM8.80957 37.6396C17.0454 37.3237 23.9531 44.5847 23.9531 53.1797C23.953 57.1531 21.3814 61.4021 17.4541 64.1719C14.2008 66.4663 10.3054 67.5444 6.6416 66.7354C8.92499 66.1646 11.4738 65.1083 13.5205 63.0479V63.0469C15.4183 61.136 16.45 59.2876 16.9727 57.4434C17.4804 55.652 17.4697 53.97 17.4697 52.5957C17.4697 47.131 15.5935 43.2202 12.3838 40.8291C10.5116 39.4344 8.3041 38.6495 5.99121 38.3076C6.7784 37.9444 7.7193 37.6815 8.80957 37.6396ZM224.19 37.6396C225.28 37.6815 226.221 37.9446 227.008 38.3076C224.695 38.6495 222.488 39.4346 220.616 40.8291C217.407 43.2202 215.53 47.131 215.53 52.5957C215.53 53.97 215.52 55.652 216.027 57.4434C216.55 59.2876 217.582 61.1369 219.479 63.0479C221.526 65.108 224.074 66.1645 226.357 66.7354C222.694 67.544 218.799 66.4661 215.546 64.1719C211.619 61.4021 209.047 57.1531 209.047 53.1797C209.047 44.5847 215.955 37.3237 224.19 37.6396Z" stroke="url(#paint0_linear_81_69)" stroke-width="4"/>
<defs>
<linearGradient id="paint0_linear_81_69" x1="116.5" y1="0" x2="116.5" y2="108" gradientUnits="userSpaceOnUse">
<stop stop-color="#CF8394"/>
<stop offset="0.5" stop-color="#F4CFD5"/>
<stop offset="1" stop-color="#CF8394"/>
</linearGradient>
</defs>
</svg>
